<svg width="1242" height="1918" viewBox="0 0 1242 1918" fill="none" xmlns="http://www.w3.org/2000/svg">
<path opacity="0.33" d="M50.0812 505.846C55.2567 793.408 335.109 1004.06 627.722 1105.88C920.334 1207.71 1234.95 1463.84 1242.99 1910.91C1245.57 2054.91 1245.77 -40.6493 1242.99 -196C1013.21 -74.341 900.231 -29.3399 594.437 -24.1822C288.643 -19.0244 44.9057 218.284 50.0812 505.846Z" fill="url(#paint0_linear_0_2675)"/>
<circle opacity="0.7" cx="511.73" cy="500.732" r="346.322" fill="url(#paint1_radial_0_2675)"/>
<circle opacity="0.3" cx="512.406" cy="500.274" r="362.358" stroke="#7BB690"/>
<path opacity="0.6" d="M1023.68 500.224C1023.68 782.288 794.632 1010.95 512.088 1010.95C229.545 1010.95 0.499512 782.288 0.499512 500.224C0.499512 218.16 229.545 -10.5 512.088 -10.5C794.632 -10.5 1023.68 218.16 1023.68 500.224Z" stroke="url(#paint2_radial_0_2675)"/>
<circle opacity="0.7" cx="511.828" cy="500.377" r="259.285" transform="rotate(-120 511.828 500.377)" fill="url(#paint3_radial_0_2675)"/>
<defs>
<linearGradient id="paint0_linear_0_2675" x1="278.213" y1="484.928" x2="1245.06" y2="536.717" gradientUnits="userSpaceOnUse">
<stop stop-color="#7BB690"/>
<stop offset="1" stop-color="#7BB690" stop-opacity="0"/>
</linearGradient>
<radialGradient id="paint1_radial_0_2675" cx="0" cy="0" r="1" gradientUnits="userSpaceOnUse" gradientTransform="translate(463.028 316.749) rotate(68.4205) scale(713.575)">
<stop stop-color="#7BB690"/>
<stop offset="1" stop-color="#7BB690" stop-opacity="0"/>
</radialGradient>
<radialGradient id="paint2_radial_0_2675" cx="0" cy="0" r="1" gradientUnits="userSpaceOnUse" gradientTransform="translate(938.541 322.031) rotate(143.707) scale(1014.19 1015.91)">
<stop stop-color="#7BB690"/>
<stop offset="1" stop-color="#7BB690" stop-opacity="0"/>
</radialGradient>
<radialGradient id="paint3_radial_0_2675" cx="0" cy="0" r="1" gradientUnits="userSpaceOnUse" gradientTransform="translate(475.366 362.632) rotate(68.4205) scale(534.239)">
<stop stop-color="#7BB690"/>
<stop offset="1" stop-color="#7BB690" stop-opacity="0"/>
</radialGradient>
</defs>
</svg>
